<svg width="48" height="48" viewBox="0 0 48 48" fill="none" xmlns="http://www.w3.org/2000/svg">
<path fill-rule="evenodd" clip-rule="evenodd" d="M30.0496 9.52364V7C30.0496 6.73478 29.9433 6.48043 29.754 6.29289C29.5648 6.10535 29.3081 6 29.0404 6L24.6966 6.00004C24.1393 6.00005 23.6874 6.44776 23.6874 7.00004V9.43344L22.2014 10.1236L20.2666 7.71934C19.9444 7.31893 19.369 7.22444 18.9336 7.50046L15.5299 9.65838C15.2891 9.81105 15.1249 10.0578 15.0782 10.3372C15.0315 10.6167 15.1065 10.9027 15.2848 11.1242L17.1795 13.4786C17.085 13.5921 16.9853 13.7173 16.885 13.8521C16.6902 14.1137 16.4635 14.4494 16.2719 14.8321C15.5246 14.1605 14.6395 13.6048 13.8044 13.1624C12.8859 12.676 11.9889 12.3063 11.3251 12.0589C10.992 11.9348 10.4234 11.7437 10.2274 11.6797C9.95398 11.6 9.62982 11.6346 9.38664 11.7819C9.14346 11.9292 8.97433 12.1723 8.92128 12.4498L8.01764 17.1765C7.96689 17.4419 8.0267 17.7164 8.18346 17.9375C8.34021 18.1586 8.58057 18.3074 8.84981 18.3501C9.95422 18.5251 10.7886 19.0696 11.36 19.592C11.6445 19.8522 11.8562 20.1003 11.9943 20.2797C12.0134 20.3046 12.0338 20.3323 12.054 20.3603C11.0452 21.885 10.6551 23.6793 10.7178 25.5266C10.8027 28.0283 11.7131 30.6743 13.0789 33.0685C14.4475 35.4676 16.3084 37.6759 18.37 39.2949C20.4174 40.9028 22.7558 42 25.0659 42C27.3703 42 29.7686 40.9085 31.8923 39.2926C34.0322 37.6644 35.9918 35.4312 37.4281 32.9732C40.2505 28.1434 41.2807 21.9328 36.7183 17.934C36.5292 17.7683 36.3537 17.6285 36.1859 17.5069C36.9168 17.4975 37.7563 17.5123 38.734 17.5457L39.7493 17.5805L40 10.8317L38.9965 10.7974C36.4319 10.7097 34.0766 10.8212 31.9386 11.308C31.4066 10.6245 30.8297 10.1119 30.3808 9.76632C30.2613 9.67431 30.1499 9.59342 30.0496 9.52364ZM32.2214 18.143C32.3967 18.0626 32.5796 17.9909 32.7733 17.9272C33.2727 18.2092 33.6715 18.4023 33.9905 18.5568C34.0968 18.6083 34.1945 18.6556 34.2838 18.7003C34.6642 18.8909 34.9616 19.0645 35.3809 19.432C38.8223 22.4483 38.3548 27.3961 35.6814 31.971C34.3699 34.2154 32.5821 36.2461 30.663 37.7063C28.7278 39.1787 26.7557 40 25.0659 40C23.3821 40 21.4768 39.1827 19.6237 37.7275C17.7848 36.2834 16.0886 34.2799 14.8361 32.0843C13.5808 29.8838 12.8062 27.5523 12.7351 25.4593C12.6647 23.3861 13.2795 21.5969 14.751 20.3072C15.5029 19.6481 16.8186 19.3795 18.5099 19.4755C19.6208 19.5386 20.7886 19.7532 21.8632 20.0264L21.8605 20.0317L23.0045 20.3633C24.2121 20.7134 25.6131 21.2689 26.5339 21.6549L25.0761 24.78L21.339 26.4546L17.2966 25.5109L16.8337 27.4576L20.0738 28.214L19.0108 30.8764L20.8878 31.6121L22.23 28.2503L24.4188 27.2695C24.3115 28.4301 24.4978 29.606 24.9702 30.6879L25.3177 31.4837L25.5885 35.4155L27.6022 35.2794L27.3852 32.1276L30.7244 31.7435L30.4917 29.7569L26.9413 30.1652L26.8227 29.8937C26.364 28.8434 26.2829 27.6689 26.5929 26.5665L26.7848 25.8839L28.9641 21.2121C29.0687 21.1056 29.1628 20.9878 29.2439 20.8601C30.1652 19.409 31.1392 18.6393 32.2214 18.143ZM24.7497 18.8178C25.4131 17.671 26.1248 16.7585 26.933 16.0081C27.0974 15.859 27.2668 15.7123 27.4403 15.5682C28.1629 14.9836 28.9624 14.5058 29.8681 14.0904C32.0607 13.0848 34.6929 12.7334 37.9066 12.7707L37.8045 15.5196C34.9585 15.4545 33.0096 15.5859 31.3832 16.3318C29.9268 16.9997 28.6566 18.041 27.535 19.8077C27.5191 19.8326 27.4959 19.8493 27.4735 19.8568C27.4533 19.8636 27.4438 19.8602 27.4398 19.8585C26.7654 19.5741 25.7684 19.17 24.7497 18.8178ZM14.716 18.006C14.5495 18.0761 14.3871 18.1542 14.2295 18.2407L13.636 18.5271C13.5169 18.5914 13.4064 18.6523 13.3049 18.7092L12.7292 18.1223C12.1312 17.5753 11.2824 16.9768 10.1791 16.6177L10.6876 13.9581C11.2884 14.1846 12.0677 14.5102 12.8531 14.9262C13.6769 15.3625 14.4693 15.8784 15.0693 16.4558C15.4205 16.7937 15.6811 17.1284 15.8521 17.4578L14.716 18.006ZM17.9984 17.4573C18.2089 17.4596 18.4183 17.467 18.6254 17.4788C18.8112 17.4893 18.9977 17.5035 19.1844 17.521C20.4611 17.6312 21.7716 17.8895 22.8096 18.1342C23.5338 16.4923 24.8768 15.0745 26.2309 13.9635C27.3595 13.0375 28.5623 12.2708 29.5812 11.7131C29.4265 11.5723 29.2778 11.4498 29.1426 11.3457C28.9587 11.2042 28.5535 10.945 28.5535 10.945C28.5535 10.945 28.0312 10.4344 28.0312 10.0691V8L25.7059 8.00002V10.0691C25.7059 10.457 25.4795 10.81 25.125 10.9746L22.3371 12.2693C21.9143 12.4657 21.4108 12.349 21.1197 11.9873L19.2555 9.67077L17.5612 10.7449L19.2942 12.8983C19.6206 13.3039 19.5798 13.8894 19.2003 14.2467L18.9962 14.4562C18.9962 14.4562 18.6856 14.8026 18.5094 15.0394C18.1223 15.5592 17.8781 16.0608 17.8676 16.4079C17.8614 16.6126 17.8653 16.8927 17.9334 17.2293C17.9572 17.3043 17.9789 17.3804 17.9984 17.4573Z" fill="currentColor"/>
</svg>
